<svg xmlns="http://www.w3.org/2000/svg" version="1.1" xmlns:xlink="http://www.w3.org/1999/xlink" width="1000" height="1000"><style>
    #light-icon {
      display: inline;
    }
    #dark-icon {
      display: none;
    }

    @media (prefers-color-scheme: dark) {
      #light-icon {
        display: none;
      }
      #dark-icon {
        display: inline;
      }
    }
  </style><g id="light-icon"><svg xmlns="http://www.w3.org/2000/svg" version="1.1" xmlns:xlink="http://www.w3.org/1999/xlink" width="1000" height="1000"><g><g transform="matrix(0.8635578583765112,0,0,0.8635578583765112,0,7.772020725388586)"><svg xmlns="http://www.w3.org/2000/svg" version="1.1" xmlns:xlink="http://www.w3.org/1999/xlink" width="1158" height="1140"><svg width="1158" height="1140" viewBox="0 0 1158 1140" fill="none" xmlns="http://www.w3.org/2000/svg">
<path d="M527.765 0.726729C503.098 2.9934 479.898 6.5934 455.098 12.0601C450.031 13.2601 442.831 14.7267 439.098 15.5267C435.498 16.1934 430.965 17.3934 429.098 18.0601C427.231 18.5934 422.165 20.1934 417.765 21.3934C400.565 26.3267 366.965 38.1934 353.765 44.1934C316.165 60.9934 296.965 71.2601 262.965 92.7267C258.031 95.9267 242.031 107.26 229.365 116.593C148.965 176.193 83.098 261.26 42.4313 358.06C16.698 419.127 4.43133 478.06 0.297998 560.06C-2.102 607.527 10.298 692.993 26.5647 740.727C28.1647 745.527 29.898 751.127 30.4313 753.393C31.898 758.727 38.1647 776.327 40.4313 781.393C41.3647 783.527 43.498 788.727 44.9647 792.727C49.3647 804.46 70.298 845.127 81.3647 863.527C93.098 882.86 108.031 904.86 116.831 916.06C117.365 916.727 120.831 921.26 124.431 926.06C148.965 958.593 193.498 1002.86 221.231 1022.33C222.965 1023.53 229.098 1027.79 234.698 1031.79C265.631 1053.93 296.698 1071.66 336.165 1089.93C342.565 1092.99 348.165 1095.39 348.431 1095.39C348.831 1095.39 351.631 1096.59 354.831 1097.93C357.898 1099.39 363.498 1101.53 367.098 1102.73C370.831 1103.93 374.965 1105.53 376.431 1106.19C378.965 1107.39 393.231 1111.79 408.431 1116.33C412.165 1117.39 417.765 1118.86 421.098 1119.66C424.431 1120.33 428.298 1121.39 429.765 1122.06C431.231 1122.59 436.031 1123.93 440.431 1124.73C444.831 1125.66 452.298 1127.13 457.098 1128.19C470.565 1130.99 485.365 1133.66 506.431 1136.99C524.031 1139.66 530.431 1139.93 577.765 1139.93C631.765 1139.93 642.698 1139.13 685.098 1132.06C720.165 1126.19 777.765 1110.46 798.031 1101.26C800.431 1100.19 804.698 1098.46 807.365 1097.53C821.765 1092.46 854.298 1076.19 874.431 1064.33C893.631 1052.99 905.498 1045.66 906.431 1044.73C906.831 1044.33 910.698 1041.66 915.098 1038.73C959.898 1009.13 1010.83 959.127 1049.23 907.393C1060.56 892.193 1073.63 872.727 1077.23 865.793C1078.3 863.793 1082.3 856.593 1086.16 849.793C1101.9 822.327 1118.03 785.26 1127.63 754.06C1130.03 746.327 1132.56 738.86 1133.1 737.393C1134.3 734.46 1136.56 726.06 1138.56 716.727C1139.36 713.393 1140.43 709.527 1141.1 708.06C1144.3 700.86 1152.3 654.593 1155.1 626.06C1159.9 579.66 1158.16 524.193 1150.56 477.393C1148.83 466.727 1142.43 436.593 1140.43 430.06C1130.16 395.927 1119.23 364.993 1110.16 344.727C1103.63 330.06 1090.83 304.727 1086.16 296.993C1083.36 292.46 1081.1 288.327 1081.1 287.927C1081.1 287.66 1079.9 285.66 1078.56 283.66C1077.23 281.66 1069.1 269.527 1060.7 256.727C1044.43 232.06 1034.03 218.46 1015.9 197.927C983.631 161.527 935.098 119.26 898.431 95.7934C870.965 78.0601 838.431 60.0601 816.431 50.4601C812.698 48.8601 805.631 45.6601 800.431 43.3934C779.231 33.7934 733.498 18.4601 713.765 14.1934C706.431 12.5934 698.031 10.7267 695.098 10.0601C692.165 9.3934 681.098 7.52673 670.431 6.06006C659.765 4.46006 647.231 2.5934 642.431 1.92673C631.765 0.193396 543.231 -0.739938 527.765 0.726729ZM357.098 244.46C359.631 247.26 366.565 254.86 372.431 261.393C378.298 267.927 384.965 275.127 387.098 277.393C389.365 279.66 399.231 290.06 409.098 300.727C418.965 311.26 436.698 330.193 448.431 342.727C460.165 355.127 473.098 368.993 477.098 373.393C481.098 377.793 492.165 389.793 501.765 400.06C511.365 410.327 523.098 422.86 527.765 428.06C532.431 433.127 543.498 445.127 552.431 454.727C561.365 464.193 570.831 474.46 573.498 477.393L578.298 482.727L584.431 476.727C587.898 473.393 596.431 464.06 603.498 456.06C618.431 438.993 627.098 429.527 631.765 424.727C637.365 419.127 683.765 369.393 694.298 357.66C699.765 351.66 713.231 337.127 724.298 325.527C735.365 313.793 746.165 302.327 748.165 300.193C772.165 274.46 783.631 262.327 793.765 251.793L805.765 239.393H877.765C929.898 239.393 949.631 239.793 949.365 240.86C949.231 241.66 946.431 244.86 943.365 247.927C931.098 260.327 889.898 303.793 871.765 323.393C869.898 325.393 856.698 339.26 842.431 354.193C828.031 369.127 811.898 386.193 806.431 392.06C800.965 397.927 787.765 411.66 777.098 422.727C766.431 433.66 746.431 454.727 732.431 469.393C718.565 484.06 699.631 503.793 690.298 513.393C680.965 522.86 670.831 533.527 667.631 536.86C645.765 560.06 633.765 573.26 633.765 574.193C633.765 574.727 638.031 579.66 643.231 584.993C648.431 590.327 660.031 602.86 669.098 612.727C678.165 622.593 689.898 635.26 695.231 640.727C711.498 657.66 720.298 666.993 723.631 670.993C725.498 672.993 732.031 680.193 738.298 686.727C749.498 698.593 779.765 730.727 786.965 738.727C796.565 749.127 823.231 777.393 835.765 790.727C843.498 798.727 855.231 811.127 861.765 818.06C885.498 843.527 890.031 848.327 902.431 861.393C914.031 873.66 933.631 894.86 947.498 910.193C950.565 913.527 953.098 916.727 953.098 917.26C953.098 917.66 784.831 918.06 579.098 918.06C373.365 918.06 205.098 917.66 205.098 916.993C205.098 916.46 208.565 912.46 212.831 908.06C216.965 903.66 227.365 892.593 235.765 883.393C261.631 855.26 287.365 827.66 307.765 806.06C318.431 794.727 334.965 776.993 344.431 766.727C353.898 756.46 365.898 743.527 371.098 738.06C376.298 732.593 384.165 724.193 388.565 719.393C392.831 714.593 400.031 706.86 404.565 702.06C409.098 697.26 423.498 681.66 436.565 667.393C449.765 653.127 462.031 639.927 463.765 637.927C466.831 634.86 496.298 603.66 514.831 583.927C518.965 579.527 522.431 575.127 522.431 574.327C522.431 573.527 521.098 571.793 519.498 570.46C517.765 569.127 513.765 564.993 510.565 561.393C504.565 554.593 500.831 550.593 466.298 514.06C455.631 502.727 444.165 490.46 440.965 486.86C437.765 483.26 432.431 477.527 429.098 474.193C425.765 470.86 415.631 459.927 406.431 450.06C386.298 428.193 356.431 396.327 335.765 374.727C327.365 365.927 313.631 351.527 305.231 342.727C284.298 320.593 276.965 312.86 239.898 274.46C222.165 255.927 207.898 240.327 208.165 239.793C208.565 239.127 241.098 238.86 280.698 239.127L352.431 239.393L357.098 244.46Z" fill="black"></path>
<path d="M576.298 658.327C575.631 659.527 566.965 669.127 557.098 679.527C547.231 690.06 534.298 703.793 528.431 710.06C522.565 716.327 516.565 722.593 515.098 724.193C513.631 725.66 505.498 734.327 497.098 743.393C488.698 752.593 477.231 764.86 471.765 770.727C466.165 776.593 458.298 785.26 454.165 790.06C450.165 794.86 442.831 802.86 437.898 808.06C433.098 813.127 429.098 817.793 429.098 818.327C429.098 818.993 496.298 819.393 578.565 819.393C669.365 819.393 727.765 818.86 727.498 818.193C727.365 817.527 724.431 814.06 721.231 810.46C717.898 806.993 712.165 800.727 708.565 796.727C704.831 792.727 693.898 780.993 684.298 770.727C674.698 760.46 665.365 750.46 663.631 748.593C651.098 734.727 636.698 719.26 631.098 713.393C625.098 707.26 601.231 681.927 584.165 663.527C578.698 657.527 577.231 656.727 576.298 658.327Z" fill="black"></path>
</svg></svg></g></g></svg></g><g id="dark-icon"><svg xmlns="http://www.w3.org/2000/svg" version="1.1" xmlns:xlink="http://www.w3.org/1999/xlink" width="1000" height="1000"><g clip-path="url(#SvgjsClipPath1187)"><rect width="1000" height="1000" fill="#ffffff"></rect><g transform="matrix(0.8635578583765112,0,0,0.8635578583765112,0,7.772020725388586)"><svg xmlns="http://www.w3.org/2000/svg" version="1.1" xmlns:xlink="http://www.w3.org/1999/xlink" width="1158" height="1140"><svg width="1158" height="1140" viewBox="0 0 1158 1140" fill="none" xmlns="http://www.w3.org/2000/svg">
<path d="M527.765 0.726729C503.098 2.9934 479.898 6.5934 455.098 12.0601C450.031 13.2601 442.831 14.7267 439.098 15.5267C435.498 16.1934 430.965 17.3934 429.098 18.0601C427.231 18.5934 422.165 20.1934 417.765 21.3934C400.565 26.3267 366.965 38.1934 353.765 44.1934C316.165 60.9934 296.965 71.2601 262.965 92.7267C258.031 95.9267 242.031 107.26 229.365 116.593C148.965 176.193 83.098 261.26 42.4313 358.06C16.698 419.127 4.43133 478.06 0.297998 560.06C-2.102 607.527 10.298 692.993 26.5647 740.727C28.1647 745.527 29.898 751.127 30.4313 753.393C31.898 758.727 38.1647 776.327 40.4313 781.393C41.3647 783.527 43.498 788.727 44.9647 792.727C49.3647 804.46 70.298 845.127 81.3647 863.527C93.098 882.86 108.031 904.86 116.831 916.06C117.365 916.727 120.831 921.26 124.431 926.06C148.965 958.593 193.498 1002.86 221.231 1022.33C222.965 1023.53 229.098 1027.79 234.698 1031.79C265.631 1053.93 296.698 1071.66 336.165 1089.93C342.565 1092.99 348.165 1095.39 348.431 1095.39C348.831 1095.39 351.631 1096.59 354.831 1097.93C357.898 1099.39 363.498 1101.53 367.098 1102.73C370.831 1103.93 374.965 1105.53 376.431 1106.19C378.965 1107.39 393.231 1111.79 408.431 1116.33C412.165 1117.39 417.765 1118.86 421.098 1119.66C424.431 1120.33 428.298 1121.39 429.765 1122.06C431.231 1122.59 436.031 1123.93 440.431 1124.73C444.831 1125.66 452.298 1127.13 457.098 1128.19C470.565 1130.99 485.365 1133.66 506.431 1136.99C524.031 1139.66 530.431 1139.93 577.765 1139.93C631.765 1139.93 642.698 1139.13 685.098 1132.06C720.165 1126.19 777.765 1110.46 798.031 1101.26C800.431 1100.19 804.698 1098.46 807.365 1097.53C821.765 1092.46 854.298 1076.19 874.431 1064.33C893.631 1052.99 905.498 1045.66 906.431 1044.73C906.831 1044.33 910.698 1041.66 915.098 1038.73C959.898 1009.13 1010.83 959.127 1049.23 907.393C1060.56 892.193 1073.63 872.727 1077.23 865.793C1078.3 863.793 1082.3 856.593 1086.16 849.793C1101.9 822.327 1118.03 785.26 1127.63 754.06C1130.03 746.327 1132.56 738.86 1133.1 737.393C1134.3 734.46 1136.56 726.06 1138.56 716.727C1139.36 713.393 1140.43 709.527 1141.1 708.06C1144.3 700.86 1152.3 654.593 1155.1 626.06C1159.9 579.66 1158.16 524.193 1150.56 477.393C1148.83 466.727 1142.43 436.593 1140.43 430.06C1130.16 395.927 1119.23 364.993 1110.16 344.727C1103.63 330.06 1090.83 304.727 1086.16 296.993C1083.36 292.46 1081.1 288.327 1081.1 287.927C1081.1 287.66 1079.9 285.66 1078.56 283.66C1077.23 281.66 1069.1 269.527 1060.7 256.727C1044.43 232.06 1034.03 218.46 1015.9 197.927C983.631 161.527 935.098 119.26 898.431 95.7934C870.965 78.0601 838.431 60.0601 816.431 50.4601C812.698 48.8601 805.631 45.6601 800.431 43.3934C779.231 33.7934 733.498 18.4601 713.765 14.1934C706.431 12.5934 698.031 10.7267 695.098 10.0601C692.165 9.3934 681.098 7.52673 670.431 6.06006C659.765 4.46006 647.231 2.5934 642.431 1.92673C631.765 0.193396 543.231 -0.739938 527.765 0.726729ZM357.098 244.46C359.631 247.26 366.565 254.86 372.431 261.393C378.298 267.927 384.965 275.127 387.098 277.393C389.365 279.66 399.231 290.06 409.098 300.727C418.965 311.26 436.698 330.193 448.431 342.727C460.165 355.127 473.098 368.993 477.098 373.393C481.098 377.793 492.165 389.793 501.765 400.06C511.365 410.327 523.098 422.86 527.765 428.06C532.431 433.127 543.498 445.127 552.431 454.727C561.365 464.193 570.831 474.46 573.498 477.393L578.298 482.727L584.431 476.727C587.898 473.393 596.431 464.06 603.498 456.06C618.431 438.993 627.098 429.527 631.765 424.727C637.365 419.127 683.765 369.393 694.298 357.66C699.765 351.66 713.231 337.127 724.298 325.527C735.365 313.793 746.165 302.327 748.165 300.193C772.165 274.46 783.631 262.327 793.765 251.793L805.765 239.393H877.765C929.898 239.393 949.631 239.793 949.365 240.86C949.231 241.66 946.431 244.86 943.365 247.927C931.098 260.327 889.898 303.793 871.765 323.393C869.898 325.393 856.698 339.26 842.431 354.193C828.031 369.127 811.898 386.193 806.431 392.06C800.965 397.927 787.765 411.66 777.098 422.727C766.431 433.66 746.431 454.727 732.431 469.393C718.565 484.06 699.631 503.793 690.298 513.393C680.965 522.86 670.831 533.527 667.631 536.86C645.765 560.06 633.765 573.26 633.765 574.193C633.765 574.727 638.031 579.66 643.231 584.993C648.431 590.327 660.031 602.86 669.098 612.727C678.165 622.593 689.898 635.26 695.231 640.727C711.498 657.66 720.298 666.993 723.631 670.993C725.498 672.993 732.031 680.193 738.298 686.727C749.498 698.593 779.765 730.727 786.965 738.727C796.565 749.127 823.231 777.393 835.765 790.727C843.498 798.727 855.231 811.127 861.765 818.06C885.498 843.527 890.031 848.327 902.431 861.393C914.031 873.66 933.631 894.86 947.498 910.193C950.565 913.527 953.098 916.727 953.098 917.26C953.098 917.66 784.831 918.06 579.098 918.06C373.365 918.06 205.098 917.66 205.098 916.993C205.098 916.46 208.565 912.46 212.831 908.06C216.965 903.66 227.365 892.593 235.765 883.393C261.631 855.26 287.365 827.66 307.765 806.06C318.431 794.727 334.965 776.993 344.431 766.727C353.898 756.46 365.898 743.527 371.098 738.06C376.298 732.593 384.165 724.193 388.565 719.393C392.831 714.593 400.031 706.86 404.565 702.06C409.098 697.26 423.498 681.66 436.565 667.393C449.765 653.127 462.031 639.927 463.765 637.927C466.831 634.86 496.298 603.66 514.831 583.927C518.965 579.527 522.431 575.127 522.431 574.327C522.431 573.527 521.098 571.793 519.498 570.46C517.765 569.127 513.765 564.993 510.565 561.393C504.565 554.593 500.831 550.593 466.298 514.06C455.631 502.727 444.165 490.46 440.965 486.86C437.765 483.26 432.431 477.527 429.098 474.193C425.765 470.86 415.631 459.927 406.431 450.06C386.298 428.193 356.431 396.327 335.765 374.727C327.365 365.927 313.631 351.527 305.231 342.727C284.298 320.593 276.965 312.86 239.898 274.46C222.165 255.927 207.898 240.327 208.165 239.793C208.565 239.127 241.098 238.86 280.698 239.127L352.431 239.393L357.098 244.46Z" fill="black"></path>
<path d="M576.298 658.327C575.631 659.527 566.965 669.127 557.098 679.527C547.231 690.06 534.298 703.793 528.431 710.06C522.565 716.327 516.565 722.593 515.098 724.193C513.631 725.66 505.498 734.327 497.098 743.393C488.698 752.593 477.231 764.86 471.765 770.727C466.165 776.593 458.298 785.26 454.165 790.06C450.165 794.86 442.831 802.86 437.898 808.06C433.098 813.127 429.098 817.793 429.098 818.327C429.098 818.993 496.298 819.393 578.565 819.393C669.365 819.393 727.765 818.86 727.498 818.193C727.365 817.527 724.431 814.06 721.231 810.46C717.898 806.993 712.165 800.727 708.565 796.727C704.831 792.727 693.898 780.993 684.298 770.727C674.698 760.46 665.365 750.46 663.631 748.593C651.098 734.727 636.698 719.26 631.098 713.393C625.098 707.26 601.231 681.927 584.165 663.527C578.698 657.527 577.231 656.727 576.298 658.327Z" fill="black"></path>
</svg></svg></g></g><defs><clipPath id="SvgjsClipPath1187"><rect width="1000" height="1000" x="0" y="0" rx="500" ry="500"></rect></clipPath></defs></svg></g></svg>